<svg width="80" height="80" viewBox="0 0 80 80" fill="none" xmlns="http://www.w3.org/2000/svg">
  <!-- 古籍卷轴 -->
  <path d="M15 20 Q15 15 20 15 L60 15 Q65 15 65 20 L65 60 Q65 65 60 65 L20 65 Q15 65 15 60 Z" 
        fill="#f8f5f0" stroke="#d4a574" stroke-width="2" stroke-linecap="round"/>
  
  <!-- 卷轴轴心 -->
  <rect x="12" y="18" width="4" height="44" rx="2" fill="#8b6914" stroke="#d4a574" stroke-width="1"/>
  <rect x="64" y="18" width="4" height="44" rx="2" fill="#8b6914" stroke="#d4a574" stroke-width="1"/>
  
  <!-- 古文字纹理 -->
  <g stroke="#d4a574" stroke-width="1.5" fill="none" stroke-linecap="round">
    <path d="M22 25 L58 25"/>
    <path d="M22 30 L55 30"/>
    <path d="M22 35 L58 35"/>
    <path d="M22 40 L52 40"/>
    <path d="M22 45 L58 45"/>
    <path d="M22 50 L56 50"/>
    <path d="M22 55 L58 55"/>
  </g>
  
  <!-- 装饰性印章 -->
  <circle cx="50" cy="35" r="6" fill="none" stroke="#d4a574" stroke-width="1.5"/>
  <path d="M47 35 L49 37 L53 33" stroke="#d4a574" stroke-width="1.5" fill="none" stroke-linecap="round"/>
  
  <!-- 飘带装饰 -->
  <path d="M20 15 Q18 12 15 14 Q12 16 14 19" fill="none" stroke="#d4a574" stroke-width="1.5" stroke-linecap="round"/>
  <path d="M60 15 Q62 12 65 14 Q68 16 66 19" fill="none" stroke="#d4a574" stroke-width="1.5" stroke-linecap="round"/>
</svg>